<svg width="67" height="76" viewBox="0 0 67 76" fill="none" xmlns="http://www.w3.org/2000/svg">
<path d="M22.6489 45.9988L33.1273 49.9282C33.2425 49.9745 33.3683 50 33.5 50C33.6317 50 33.7575 49.9745 33.8727 49.9282L44.3511 45.9988C44.7414 45.8525 45 45.4793 45 45.0625V31.9605C45.0023 31.8632 44.9903 31.7642 44.9627 31.6666C44.9496 31.6203 44.9333 31.5752 44.914 31.5317C44.8306 31.3435 44.6951 31.1927 44.5311 31.0901C44.4726 31.0535 44.4104 31.023 44.3458 30.9992L33.8511 27.0637C33.6247 26.9788 33.3753 26.9788 33.1489 27.0637L22.6543 30.9991C22.6422 31.0036 22.6301 31.0083 22.6182 31.0133C22.5658 31.0349 22.516 31.0607 22.4689 31.0901C22.3049 31.1927 22.1694 31.3435 22.086 31.5317C22.0667 31.5752 22.0504 31.6203 22.0373 31.6666C22.0097 31.7642 21.9977 31.8632 22 31.9605V45.0625C22 45.4793 22.2586 45.8525 22.6489 45.9988Z" stroke="#0F868D" stroke-width="2" stroke-linecap="round" stroke-linejoin="round"/>
<path d="M26 34L33.5 37.4286M33.5 46V37.4286M33.5 37.4286L41 34" stroke="#0F868D" stroke-width="2" stroke-linecap="round" stroke-linejoin="round"/>
<path d="M47.7894 29.75C52.2807 37.5292 54.6481 45.4954 54.8844 52.0571C55.1226 58.6689 53.207 63.5726 49.5 65.7128C45.793 67.853 40.5885 67.0602 34.9816 63.548C29.4172 60.0625 23.7019 54.0292 19.2106 46.25C14.7192 38.4708 12.3519 30.5045 12.1156 23.9429C11.8774 17.3311 13.793 12.4274 17.5 10.2872C21.207 8.14697 26.4115 8.93984 32.0184 12.452C37.5828 15.9375 43.2981 21.9708 47.7894 29.75Z" stroke="#0F868D" stroke-width="2"/>
<path d="M47.7894 46.25C43.2981 54.0292 37.5828 60.0625 32.0184 63.548C26.4115 67.0602 21.207 67.853 17.5 65.7128C13.793 63.5726 11.8774 58.6689 12.1156 52.0571C12.3519 45.4954 14.7192 37.5292 19.2106 29.75C23.7019 21.9708 29.4172 15.9375 34.9816 12.452C40.5885 8.93984 45.793 8.14697 49.5 10.2872C53.207 12.4274 55.1226 17.3311 54.8844 23.9429C54.6481 30.5045 52.2807 38.4708 47.7894 46.25Z" stroke="#0F868D" stroke-width="2"/>
<path d="M33.5 54.5C24.5174 54.5 16.4347 52.567 10.634 49.4909C4.78891 46.3912 1.5 42.2804 1.5 38C1.5 33.7196 4.78891 29.6087 10.634 26.5091C16.4347 23.4329 24.5174 21.5 33.5 21.5C42.4826 21.5 50.5653 23.4329 56.366 26.5091C62.2111 29.6087 65.5 33.7196 65.5 38C65.5 42.2804 62.2111 46.3913 56.366 49.4909C50.5653 52.5671 42.4826 54.5 33.5 54.5Z" stroke="#0F868D" stroke-width="2"/>
</svg>
